<svg width="48" height="48" viewBox="0 0 48 48" fill="none" xmlns="http://www.w3.org/2000/svg">
<path d="M24 0C10.7456 0 0 10.7456 0 24C0 37.2544 10.7456 48 24 48C37.2544 48 48 37.2544 48 24C48 10.7456 37.2544 0 24 0Z" fill="#C6FE1E"/>
<mask id="mask0_373_102" style="mask-type:luminance" maskUnits="userSpaceOnUse" x="7" y="10" width="37" height="31">
<path d="M43.2012 10.7998H7.20117V40.7998H43.2012V10.7998Z" fill="white"/>
</mask>
<g mask="url(#mask0_373_102)">
<path d="M21.1381 17.7216H21.1221C20.1301 17.4368 19.0805 18.0064 18.7445 18.9472C18.3733 19.9584 18.9621 21.1168 20.0021 21.4368C22.5493 22.16 23.6437 18.5088 21.1381 17.7216Z" fill="#0D0D0D"/>
<path d="M42.8457 22.8828C39.5657 15.6988 29.1017 18.6716 28.1353 16.79C25.3033 12.3452 20.0169 9.84921 14.3017 11.1356C13.4217 10.7836 10.3913 10.6876 8.4329 11.9196L9.6137 12.4412C9.7033 12.4796 9.6777 12.47 9.8089 12.518C10.3433 12.7196 10.2505 12.662 9.8665 12.8732C8.9865 13.3884 7.8889 13.9868 7.2041 14.886C7.2329 14.9276 8.7113 15.2828 8.7113 15.2828C8.7369 15.2892 9.0121 15.318 8.9513 15.4396C4.1161 23.0748 12.2697 34.598 16.2281 40.7996H27.6873C25.9177 37.6316 23.8953 33.3084 24.5865 30.374C24.7113 29.8428 24.8713 29.1676 25.5241 29.078C27.1017 28.8252 29.2137 28.8476 30.7177 28.678C30.7177 28.678 30.7252 28.678 30.7401 28.678C31.0601 28.662 38.8937 27.6668 40.7689 32.55C40.9289 32.998 41.2969 32.7068 41.4441 32.4124C42.8425 29.6316 43.7449 25.254 42.8521 22.886L42.8457 22.8828ZM30.1993 20.5244C29.6489 21.5068 29.2745 22.7836 29.1785 23.8972C29.1273 24.6044 29.2009 25.302 29.2713 26.0092C29.3097 26.3996 29.3129 26.8924 28.9993 27.1484C28.7273 27.3788 28.2761 27.4012 27.8217 27.4332C25.5913 27.4236 20.1513 27.4332 18.0553 26.006L18.0425 25.9964C14.9929 24.1372 13.3609 19.9388 15.1721 16.678C15.7577 15.5708 16.8361 14.8508 18.0649 14.5788C19.6457 14.2172 21.3865 14.486 22.7977 15.2252C23.3737 15.5164 24.0617 15.9004 24.5865 16.342C25.6265 17.2508 26.5161 18.1948 27.8793 18.486C28.5065 18.6652 29.1593 18.6396 29.7865 18.7676C30.9609 19.0492 30.6665 19.718 30.1961 20.518L30.1993 20.5244Z" fill="#0D0D0D"/>
</g>
</svg>
