<svg width="870" height="127" viewBox="0 0 870 127" fill="none" xmlns="http://www.w3.org/2000/svg">
<path d="M63.4963 0.796555C28.8752 0.796555 0.80722 28.8556 0.80722 63.4657C0.80722 98.0758 28.8752 126.135 63.4963 126.135C98.1173 126.135 126.185 98.0758 126.185 63.4657C126.185 28.8556 98.1173 0.796555 63.4963 0.796555Z" fill="#C6FE1E"/>
<mask id="mask0_36_3" style="mask-type:luminance" maskUnits="userSpaceOnUse" x="19" y="28" width="95" height="80">
<path d="M113.647 28.9979H19.6139V107.334H113.647V28.9979Z" fill="white"/>
</mask>
<g mask="url(#mask0_36_3)">
<path d="M56.0155 47.0714H55.9737C53.3826 46.3277 50.641 47.8151 49.7633 50.2717C48.7937 52.9122 50.3317 55.937 53.0482 56.7726C59.7016 58.661 62.5602 49.127 56.0155 47.0714Z" fill="#0D0D0D"/>
<path d="M112.72 60.5493C104.152 41.7903 76.82 49.5529 74.2957 44.6396C66.8984 33.0333 53.0901 26.5157 38.1618 29.8748C35.8632 28.9556 27.9476 28.705 22.8322 31.922L25.9165 33.284C26.1506 33.3842 26.0837 33.3592 26.4264 33.4845C27.8223 34.0109 27.5799 33.8605 26.5768 34.412C24.2782 35.7573 21.4113 37.3199 19.6225 39.6679C19.6978 39.7765 23.5594 40.704 23.5594 40.704C23.6263 40.7207 24.3451 40.7959 24.1863 41.1134C11.5565 61.0506 32.8541 91.1402 43.1936 107.334H73.1255C68.5033 99.0615 63.2207 87.7727 65.0261 80.1104C65.3521 78.7233 65.77 76.9602 67.4752 76.7262C71.5959 76.0661 77.1126 76.1246 81.0411 75.6818C81.0411 75.6818 81.0606 75.6818 81.0996 75.6818C81.9355 75.64 102.397 73.0413 107.295 85.7924C107.713 86.9622 108.674 86.2018 109.059 85.4331C112.712 78.1718 115.069 66.741 112.737 60.5576L112.72 60.5493ZM79.687 54.391C78.2493 56.9562 77.2714 60.2902 77.0206 63.1981C76.8869 65.0447 77.0791 66.8663 77.263 68.713C77.3633 69.7324 77.3717 71.0192 76.5526 71.6876C75.8421 72.2893 74.6635 72.3478 73.4766 72.4313C67.6507 72.4063 53.4412 72.4313 47.9663 68.7046L47.9329 68.6795C39.9672 63.8248 35.7044 52.8618 40.4353 44.3472C41.9649 41.456 44.7817 39.576 47.9914 38.8657C52.1205 37.9215 56.6676 38.6234 60.3537 40.5536C61.8582 41.314 63.6553 42.3167 65.0261 43.4698C67.7427 45.8429 70.0663 48.3079 73.6271 49.0683C75.2653 49.5362 76.9705 49.4693 78.6088 49.8036C81.6763 50.5389 80.9074 52.2853 79.6786 54.3743L79.687 54.391Z" fill="#0D0D0D"/>
</g>
<path d="M158.993 91.9174V20.7837H183.441C190.613 20.7837 196.865 22.2126 202.198 25.062C207.531 27.9197 211.668 31.989 214.635 37.2783C217.594 42.5676 219.074 48.9431 219.074 56.3965C219.074 63.85 217.594 70.3258 214.635 75.6151C211.676 80.9044 207.514 84.9486 202.148 87.7311C196.782 90.5136 190.513 91.9091 183.341 91.9091H159.001L158.993 91.9174ZM172.684 83.4529L167.568 78.8572H182.405C186.793 78.8572 190.671 78.055 194.057 76.4507C197.433 74.8463 200.1 72.4148 202.047 69.1393C203.995 65.8638 204.973 61.619 204.973 56.3965C204.973 51.1741 204.012 47.2051 202.098 43.8627C200.183 40.5204 197.534 38.0136 194.157 36.3424C190.78 34.6712 186.893 33.8356 182.505 33.8356H166.833L172.684 29.6577V83.4529Z" fill="white"/>
<path d="M251.455 93.1709C246.164 93.1709 241.508 92.0345 237.504 89.7784C233.501 87.5139 230.383 84.3805 228.151 80.378C225.919 76.3755 224.808 71.7297 224.808 66.432C224.808 61.1344 225.919 56.4969 228.151 52.486C230.383 48.4836 233.492 45.3501 237.504 43.0857C241.508 40.8212 246.155 39.6932 251.455 39.6932C256.754 39.6932 261.393 40.8296 265.405 43.0857C269.409 45.3501 272.527 48.4836 274.758 52.486C276.99 56.4885 278.102 61.1427 278.102 66.432C278.102 71.7213 276.99 76.3755 274.758 80.378C272.527 84.3805 269.409 87.5139 265.405 89.7784C261.401 92.0428 256.746 93.1709 251.455 93.1709ZM251.455 79.9017C255.216 79.9017 258.284 78.665 260.649 76.1917C263.015 73.7184 264.201 70.4679 264.201 66.4237C264.201 62.3794 263.015 59.1123 260.649 56.6055C258.284 54.0987 255.216 52.8453 251.455 52.8453C247.693 52.8453 244.642 54.082 242.31 56.5554C239.978 59.0287 238.808 62.2875 238.808 66.3234C238.808 70.3593 239.97 73.6348 242.31 76.1416C244.642 78.6483 247.693 79.9017 251.455 79.9017Z" fill="white"/>
<path d="M307.323 93.221C302.659 93.221 298.547 92.0679 294.994 89.7784C291.442 87.4889 288.692 84.3137 286.736 80.2694C284.789 76.2335 283.811 71.596 283.811 66.3819C283.811 61.1678 284.805 56.4468 286.786 52.4359C288.776 48.4335 291.542 45.3167 295.095 43.0857C298.647 40.8547 302.718 39.7433 307.315 39.7433C311.912 39.7433 315.774 40.7878 319.117 42.8768C322.461 44.9658 325.068 47.9906 326.957 51.968C328.846 55.9454 329.783 60.7417 329.783 66.3819C329.783 72.0221 328.846 76.5343 326.957 80.5368C325.077 84.5393 322.444 87.656 319.067 89.887C315.69 92.1181 311.77 93.2294 307.315 93.2294L307.323 93.221ZM309.73 80.5869C313.283 80.5869 316.175 79.2834 318.407 76.668C320.638 74.061 321.75 70.6601 321.75 66.4822C321.75 62.3042 320.638 58.8031 318.407 56.1961C316.175 53.5891 313.291 52.2772 309.73 52.2772C306.17 52.2772 303.37 53.5807 301.113 56.1961C298.848 58.8031 297.719 62.204 297.719 66.3819C297.719 70.5599 298.848 73.9691 301.113 76.6179C303.378 79.2667 306.245 80.5869 309.73 80.5869ZM324.567 91.9677L321.123 79.8516H322.059V54.2659H321.123V20.8423H334.814V91.9677H324.575H324.567Z" fill="white"/>
<path d="M366.669 93.1709C361.378 93.1709 356.722 92.0345 352.718 89.7784C348.715 87.5139 345.597 84.3805 343.365 80.378C341.134 76.3755 340.022 71.7297 340.022 66.432C340.022 61.1344 341.134 56.4969 343.365 52.486C345.597 48.4836 348.706 45.3501 352.718 43.0857C356.722 40.8212 361.37 39.6932 366.669 39.6932C371.968 39.6932 376.607 40.8296 380.619 43.0857C384.623 45.3501 387.741 48.4836 389.973 52.486C392.204 56.4885 393.316 61.1427 393.316 66.432C393.316 71.7213 392.204 76.3755 389.973 80.378C387.741 84.3805 384.623 87.5139 380.619 89.7784C376.616 92.0428 371.96 93.1709 366.669 93.1709ZM366.669 79.9017C370.43 79.9017 373.498 78.665 375.863 76.1917C378.229 73.7184 379.416 70.4679 379.416 66.4237C379.416 62.3794 378.229 59.1123 375.863 56.6055C373.498 54.0987 370.43 52.8453 366.669 52.8453C362.908 52.8453 359.857 54.082 357.525 56.5554C355.193 59.0287 354.022 62.2875 354.022 66.3234C354.022 70.3593 355.184 73.6348 357.525 76.1416C359.857 78.6483 362.908 79.9017 366.669 79.9017Z" fill="white"/>
<path d="M442.656 58.0761H456.03C460.067 58.0761 463.277 57.0316 465.642 54.9427C468.008 52.8537 469.195 49.8957 469.195 46.0687C469.195 42.0328 468.024 38.9829 465.692 36.9274C463.36 34.8718 460.167 33.844 456.13 33.844H442.548L445.473 30.8192V91.9175H431.782V20.7838H457.376C462.6 20.7838 467.13 21.845 470.958 23.9674C474.787 26.0898 477.787 29.031 479.944 32.7912C482.1 36.5514 483.187 40.9716 483.187 46.0604C483.187 51.1491 482.109 55.4774 479.944 59.271C477.787 63.0646 474.77 66.0059 470.908 68.0948C467.047 70.1838 462.533 71.2283 457.376 71.2283H442.648V58.0678L442.656 58.0761Z" fill="white"/>
<path d="M507.736 93.38C503.975 93.38 500.665 92.6613 497.806 91.2408C494.947 89.812 492.757 87.7982 491.22 85.1828C489.69 82.5758 488.921 79.5259 488.921 76.0415C488.921 72.5571 489.74 69.5322 491.378 66.9503C493.017 64.3767 495.257 62.3712 498.115 60.9424C500.974 59.5135 504.209 58.8033 507.828 58.8033C512.776 58.8033 516.797 59.9397 519.898 62.1958C522.999 64.4602 525.105 67.6772 526.217 71.8552L519.848 71.0196V58.6946C519.848 56.7477 519.154 55.0013 517.758 53.4722C516.362 51.9431 514.097 51.1743 510.971 51.1743C509.023 51.1743 506.858 51.4 504.493 51.8512C502.127 52.3024 499.653 53.1547 497.071 54.4081L492.992 44.381C495.984 42.9187 499.169 41.774 502.554 40.9384C505.931 40.1028 509.324 39.685 512.743 39.685C517.407 39.685 521.277 40.5206 524.344 42.1918C527.412 43.8629 529.711 46.1608 531.24 49.0854C532.77 52.0099 533.539 55.3523 533.539 59.1124V91.9093H522.673L519.747 82.1998L526.225 80.3197C525.038 84.4308 522.865 87.6311 519.697 89.929C516.529 92.2268 512.542 93.3716 507.736 93.3716V93.38ZM511.497 82.9351C514.005 82.9351 516.028 82.3084 517.557 81.055C519.087 79.8016 519.856 78.1305 519.856 76.0415C519.856 73.9525 519.087 72.1978 517.557 70.9778C516.028 69.7578 514.005 69.1479 511.497 69.1479C508.99 69.1479 506.967 69.7578 505.437 70.9778C503.908 72.1978 503.139 73.8857 503.139 76.0415C503.139 78.1973 503.908 79.8016 505.437 81.055C506.967 82.3084 508.99 82.9351 511.497 82.9351Z" fill="white"/>
<path d="M559.634 87.2133L539.256 40.8381H553.257L572.164 83.9712L559.626 87.2133H559.634ZM547.932 111.763L579.176 40.8381H593.177L561.933 111.763H547.932Z" fill="white"/>
<path d="M598.886 91.9176V40.8464H609.125L611.95 50.6645L607.562 50.4556C609.376 48.3667 611.357 46.52 613.513 44.924C615.67 43.3197 618.018 42.0496 620.568 41.1138C623.109 40.1779 625.775 39.7016 628.559 39.7016C632.044 39.7016 634.827 40.2949 636.917 41.4731C639.007 42.6596 640.553 44.2556 641.564 46.2777C642.576 48.2998 643.27 50.581 643.654 53.1212C644.039 55.6614 644.231 58.2935 644.231 61.0091V91.9259H630.54V60.9089C630.54 57.7754 629.913 55.6864 628.659 54.642C627.405 53.5975 625.909 53.071 624.162 53.071C621.654 53.071 619.214 53.8231 616.848 55.3188C614.483 56.8145 612.493 58.7113 610.897 61.0091L609.125 53.9066H612.569V91.9259H598.877L598.886 91.9176ZM662.101 91.9176V60.9005C662.101 57.7671 661.491 55.6781 660.271 54.6336C659.05 53.5891 657.571 53.0627 655.832 53.0627C653.325 53.0627 650.884 53.8147 648.519 55.3104C646.153 56.8061 644.164 58.7029 642.567 61.0008L639.124 50.4556C640.938 48.3667 642.935 46.52 645.134 44.924C647.323 43.3197 649.697 42.0496 652.238 41.1138C654.779 40.1779 657.446 39.7016 660.229 39.7016C663.639 39.7016 666.398 40.2949 668.487 41.4731C670.577 42.6596 672.148 44.2556 673.185 46.2777C674.23 48.2998 674.94 50.581 675.325 53.1212C675.709 55.6614 675.901 58.2935 675.901 61.0091V91.9259H662.11L662.101 91.9176Z" fill="white"/>
<path d="M706.995 92.962C701.913 92.962 697.45 91.8674 693.621 89.6698C689.793 87.4805 686.834 84.3972 684.745 80.4281C682.655 76.4591 681.61 71.7965 681.61 66.432C681.61 61.0675 682.655 56.4969 684.745 52.486C686.834 48.4836 689.793 45.3501 693.621 43.0857C697.45 40.8212 701.913 39.6932 706.995 39.6932C712.077 39.6932 716.624 40.8463 720.419 43.1358C724.214 45.4337 727.156 48.5838 729.245 52.5863C731.335 56.5888 732.38 61.1678 732.38 66.3234C732.38 67.0921 732.363 67.8358 732.33 68.5711C732.296 69.3065 732.204 69.9164 732.071 70.4011H692.785V60.1651H721.723L719.633 65.0784C719.633 60.7584 718.605 57.2405 716.549 54.5332C714.493 51.8176 711.308 50.4556 706.987 50.4556C703.225 50.4556 700.199 51.6254 697.893 53.9567C695.594 56.288 694.449 59.4047 694.449 63.3069V68.8385C694.449 72.9496 695.611 76.1666 697.951 78.4979C700.283 80.8292 703.468 81.999 707.513 81.999C711.066 81.999 713.849 81.2637 715.872 79.8098C717.895 78.3475 719.633 76.5343 721.096 74.3785L730.608 79.8098C728.309 84.0546 725.192 87.3134 721.255 89.5778C717.318 91.8423 712.562 92.9703 706.995 92.9703V92.962Z" fill="white"/>
<path d="M768.815 39.6932C772.3 39.6932 775.1 40.2864 777.224 41.4646C779.347 42.6512 780.951 44.2471 782.03 46.2693C783.108 48.2914 783.818 50.5725 784.17 53.1127C784.521 55.6529 784.688 58.285 784.688 61.0007V91.9175H770.996V60.9004C770.996 57.767 770.386 55.678 769.166 54.6335C767.946 53.589 766.399 53.0626 764.519 53.0626C762.78 53.0626 761 53.3968 759.186 54.0569C757.372 54.7171 755.684 55.6613 754.121 56.8812C752.549 58.1012 751.212 59.4799 750.1 61.0091L748.328 53.9065H751.772V91.9258H738.081V40.8546H748.32L751.145 50.6728L746.757 50.4639C748.57 48.3749 750.635 46.5283 752.975 44.9323C755.307 43.328 757.798 42.0579 760.448 41.122C763.098 40.1862 765.881 39.7099 768.807 39.7099L768.815 39.6932Z" fill="white"/>
<path d="M790.414 53.4806V40.8465H823.221V53.4806H790.414ZM815.28 92.8536C810.056 92.8536 805.927 91.4832 802.901 88.7258C799.875 85.9767 798.354 81.5731 798.354 75.5151V41.4649L798.145 40.8382L800.97 28.8224H812.045V73.3175C812.045 75.5485 812.58 77.1696 813.667 78.1723C814.745 79.1834 816.124 79.6847 817.796 79.6847C818.908 79.6847 819.919 79.6012 820.822 79.4257C821.725 79.2502 822.527 79.058 823.229 78.8491V91.5919C822.118 92.0097 820.931 92.3272 819.677 92.5277C818.423 92.7283 816.96 92.8452 815.289 92.8452L815.28 92.8536Z" fill="white"/>
<path d="M849.341 93.2712C845.438 93.2712 841.726 92.469 838.216 90.8647C834.697 89.2603 831.579 86.4778 828.863 82.5088L837.221 75.1974C839.453 77.7041 841.593 79.5006 843.649 80.5786C845.705 81.6565 848.021 82.1996 850.595 82.1996C852.334 82.1996 853.729 81.7818 854.774 80.9462C855.819 80.1106 856.346 79.0661 856.346 77.8128C856.346 76.9772 856.07 76.2335 855.51 75.565C854.95 74.9049 853.922 74.2615 852.425 73.6348C850.929 73.0081 848.748 72.348 845.897 71.6461C840.606 70.2507 836.636 68.3539 833.987 65.9557C831.337 63.5493 830.016 60.1568 830.016 55.7699C830.016 52.7785 830.785 50.0461 832.315 47.5728C833.844 45.0994 836.059 43.1358 838.951 41.6735C841.843 40.2112 845.271 39.4843 849.241 39.4843C853.905 39.4843 857.892 40.3867 861.202 42.1999C864.512 44.0132 867.17 46.2024 869.193 48.7844L860.316 56.2044C858.995 54.809 857.29 53.5974 855.2 52.5445C853.111 51.4917 850.67 50.9736 847.887 50.9736C846.357 50.9736 844.995 51.3246 843.808 52.0181C842.621 52.7117 842.036 53.7227 842.036 55.0429C842.036 56.2963 842.679 57.3408 843.967 58.1764C845.254 59.012 847.745 59.881 851.439 60.7834C857.708 62.2457 862.205 64.2261 864.913 66.7328C867.621 69.2396 868.992 72.582 868.992 76.7599C868.992 80.1023 868.123 83.0101 866.384 85.4835C864.646 87.9568 862.288 89.8703 859.33 91.2323C856.371 92.586 853.044 93.2712 849.35 93.2712H849.341Z" fill="white"/>
</svg>
