<svg width="871" height="127" viewBox="0 0 871 127" fill="none" xmlns="http://www.w3.org/2000/svg">
<path d="M63.619 0.796555C28.9534 0.796555 0.849365 28.8556 0.849365 63.4657C0.849365 98.0758 28.9534 126.135 63.619 126.135C98.2845 126.135 126.389 98.0758 126.389 63.4657C126.389 28.8556 98.2845 0.796555 63.619 0.796555Z" fill="#C6FE1E"/>
<mask id="mask0_36_2" style="mask-type:luminance" maskUnits="userSpaceOnUse" x="19" y="28" width="95" height="80">
<path d="M113.835 28.9979H19.6802V107.334H113.835V28.9979Z" fill="white"/>
</mask>
<g mask="url(#mask0_36_2)">
<path d="M56.1286 47.0714H56.0867C53.4922 46.3277 50.7471 47.8151 49.8683 50.2717C48.8975 52.9122 50.4375 55.937 53.1575 56.7726C59.8194 58.661 62.6817 49.127 56.1286 47.0714Z" fill="#0D0D0D"/>
<path d="M112.906 60.5492C104.327 41.7903 76.9598 49.5529 74.4323 44.6396C67.0255 33.0333 53.1994 26.5157 38.2519 29.8748C35.9503 28.9556 28.0246 28.7049 22.9026 31.922L25.9909 33.284C26.2252 33.3842 26.1583 33.3592 26.5014 33.4845C27.8991 34.0109 27.6564 33.8605 26.6521 34.412C24.3505 35.7573 21.4799 37.3199 19.6888 39.6679C19.7642 39.7765 23.6308 40.704 23.6308 40.704C23.6977 40.7207 24.4175 40.7959 24.2585 41.1134C11.6125 61.0506 32.9374 91.1402 43.2902 107.334H73.2606C68.6324 99.0615 63.343 87.7727 65.1508 80.1104C65.4772 78.7233 65.8956 76.9602 67.603 76.7262C71.729 76.0661 77.2527 76.1246 81.1863 75.6818C81.1863 75.6818 81.2058 75.6818 81.2449 75.6818C82.0818 75.64 102.57 73.0413 107.474 85.7924C107.893 86.9622 108.855 86.2018 109.24 85.4331C112.897 78.1718 115.258 66.741 112.923 60.5576L112.906 60.5492ZM79.8305 54.391C78.391 56.9562 77.4118 60.2902 77.1607 63.1981C77.0268 65.0447 77.2193 66.8663 77.4034 68.7129C77.5038 69.7324 77.5122 71.0192 76.692 71.6876C75.9806 72.2893 74.8005 72.3478 73.6121 72.4313C67.7787 72.4063 53.5509 72.4313 48.0691 68.7046L48.0356 68.6795C40.0597 63.8248 35.7913 52.8618 40.5283 44.3472C42.0599 41.456 44.8804 39.576 48.0942 38.8657C52.2286 37.9215 56.7815 38.6234 60.4723 40.5536C61.9788 41.314 63.7782 42.3167 65.1508 43.4698C67.8708 45.8429 70.1974 48.3079 73.7627 49.0682C75.4031 49.5362 77.1105 49.4693 78.7508 49.8036C81.8224 50.5389 81.0524 52.2853 79.8221 54.3742L79.8305 54.391Z" fill="#0D0D0D"/>
</g>
<path d="M159.238 91.9174V20.7837H183.718C190.899 20.7837 197.159 22.2126 202.499 25.062C207.838 27.9197 211.981 31.989 214.952 37.2783C217.915 42.5676 219.396 48.9431 219.396 56.3965C219.396 63.85 217.915 70.3258 214.952 75.6151C211.989 80.9044 207.822 84.9486 202.449 87.7311C197.075 90.5136 190.798 91.9091 183.618 91.9091H159.246L159.238 91.9174ZM172.947 83.4529L167.825 78.8572H182.68C187.074 78.8572 190.958 78.055 194.347 76.4507C197.728 74.8463 200.398 72.4148 202.348 69.1393C204.298 65.8638 205.277 61.619 205.277 56.3965C205.277 51.1741 204.315 47.2051 202.398 43.8627C200.482 40.5204 197.829 38.0136 194.447 36.3424C191.066 34.6712 187.175 33.8356 182.781 33.8356H167.088L172.947 29.6577V83.4529Z" fill="#0D0D0D"/>
<path d="M251.819 93.1709C246.521 93.1709 241.859 92.0345 237.851 89.7784C233.842 87.5139 230.72 84.3805 228.485 80.378C226.251 76.3755 225.138 71.7297 225.138 66.432C225.138 61.1344 226.251 56.4969 228.485 52.486C230.72 48.4836 233.833 45.3501 237.851 43.0857C241.859 40.8212 246.513 39.6932 251.819 39.6932C257.125 39.6932 261.77 40.8296 265.787 43.0857C269.796 45.3501 272.918 48.4836 275.152 52.486C277.387 56.4885 278.5 61.1427 278.5 66.432C278.5 71.7213 277.387 76.3755 275.152 80.378C272.918 84.3805 269.796 87.5139 265.787 89.7784C261.778 92.0428 257.117 93.1709 251.819 93.1709ZM251.819 79.9017C255.585 79.9017 258.657 78.665 261.025 76.1917C263.394 73.7184 264.582 70.4679 264.582 66.4237C264.582 62.3794 263.394 59.1123 261.025 56.6055C258.657 54.0987 255.585 52.8453 251.819 52.8453C248.053 52.8453 244.998 54.082 242.663 56.5554C240.328 59.0287 239.156 62.2875 239.156 66.3234C239.156 70.3593 240.319 73.6348 242.663 76.1416C244.998 78.6483 248.053 79.9017 251.819 79.9017Z" fill="#0D0D0D"/>
<path d="M307.759 93.221C303.089 93.221 298.971 92.0679 295.414 89.7784C291.858 87.4889 289.104 84.3137 287.146 80.2694C285.196 76.2335 284.216 71.596 284.216 66.3819C284.216 61.1678 285.212 56.4468 287.196 52.4359C289.188 48.4335 291.958 45.3167 295.515 43.0857C299.072 40.8547 303.148 39.7433 307.751 39.7433C312.354 39.7433 316.22 40.7878 319.568 42.8768C322.916 44.9658 325.527 47.9906 327.419 51.968C329.31 55.9454 330.247 60.7417 330.247 66.3819C330.247 72.0221 329.31 76.5343 327.419 80.5368C325.535 84.5393 322.899 87.656 319.518 89.887C316.137 92.118 312.212 93.2294 307.751 93.2294L307.759 93.221ZM310.169 80.5869C313.726 80.5869 316.622 79.2834 318.857 76.668C321.091 74.061 322.205 70.6601 322.205 66.4822C322.205 62.3042 321.091 58.8031 318.857 56.1961C316.622 53.589 313.735 52.2772 310.169 52.2772C306.604 52.2772 303.8 53.5807 301.541 56.1961C299.273 58.8031 298.143 62.204 298.143 66.3819C298.143 70.5599 299.273 73.9691 301.541 76.6179C303.809 79.2667 306.679 80.5869 310.169 80.5869ZM325.025 91.9677L321.577 79.8516H322.514V54.2659H321.577V20.8423H335.286V91.9677H325.033H325.025Z" fill="#0D0D0D"/>
<path d="M367.181 93.1709C361.883 93.1709 357.222 92.0345 353.213 89.7784C349.204 87.5139 346.082 84.3805 343.848 80.378C341.613 76.3755 340.5 71.7297 340.5 66.432C340.5 61.1344 341.613 56.4969 343.848 52.486C346.082 48.4836 349.195 45.3501 353.213 43.0857C357.222 40.8212 361.875 39.6932 367.181 39.6932C372.487 39.6932 377.132 40.8296 381.149 43.0857C385.158 45.3501 388.28 48.4836 390.515 52.486C392.749 56.4885 393.862 61.1427 393.862 66.432C393.862 71.7213 392.749 76.3755 390.515 80.378C388.28 84.3805 385.158 87.5139 381.149 89.7784C377.141 92.0428 372.479 93.1709 367.181 93.1709ZM367.181 79.9017C370.947 79.9017 374.019 78.665 376.387 76.1917C378.756 73.7184 379.944 70.4679 379.944 66.4237C379.944 62.3794 378.756 59.1123 376.387 56.6055C374.019 54.0987 370.947 52.8453 367.181 52.8453C363.415 52.8453 360.36 54.082 358.025 56.5554C355.69 59.0287 354.518 62.2875 354.518 66.3234C354.518 70.3593 355.682 73.6348 358.025 76.1416C360.36 78.6483 363.415 79.9017 367.181 79.9017Z" fill="#0D0D0D"/>
<path d="M443.266 58.0761H456.657C460.699 58.0761 463.913 57.0316 466.282 54.9427C468.65 52.8537 469.839 49.8957 469.839 46.0687C469.839 42.0328 468.667 38.9829 466.332 36.9274C463.997 34.8718 460.8 33.844 456.757 33.844H443.157L446.087 30.8192V91.9175H432.378V20.7838H458.004C463.235 20.7838 467.771 21.845 471.605 23.9674C475.438 26.0898 478.442 29.031 480.601 32.7912C482.761 36.5514 483.849 40.9716 483.849 46.0604C483.849 51.1491 482.769 55.4774 480.601 59.271C478.442 63.0646 475.421 66.0059 471.554 68.0948C467.688 70.1838 463.168 71.2283 458.004 71.2283H443.258V58.0678L443.266 58.0761Z" fill="#0D0D0D"/>
<path d="M508.429 93.38C504.663 93.38 501.349 92.6614 498.487 91.2409C495.624 89.812 493.432 87.7982 491.892 85.1828C490.36 82.5758 489.59 79.5259 489.59 76.0415C489.59 72.5571 490.41 69.5322 492.051 66.9503C493.691 64.3767 495.934 62.3713 498.796 60.9424C501.659 59.5135 504.898 58.8033 508.522 58.8033C513.476 58.8033 517.502 59.9397 520.607 62.1958C523.712 64.4602 525.821 67.6772 526.934 71.8552L520.556 71.0196V58.6947C520.556 56.7477 519.862 55.0014 518.464 53.4722C517.066 51.9431 514.798 51.1744 511.668 51.1744C509.718 51.1744 507.551 51.4 505.182 51.8512C502.814 52.3024 500.336 53.1547 497.75 54.4081L493.666 44.381C496.662 42.9187 499.851 41.774 503.24 40.9384C506.622 40.1028 510.02 39.685 513.443 39.685C518.113 39.685 521.988 40.5206 525.059 42.1918C528.131 43.863 530.432 46.1608 531.964 49.0854C533.495 52.0099 534.265 55.3523 534.265 59.1125V91.9093H523.385L520.456 82.1998L526.942 80.3197C525.754 84.4308 523.578 87.6311 520.406 89.929C517.234 92.2268 513.242 93.3716 508.429 93.3716V93.38ZM512.196 82.9351C514.706 82.9351 516.732 82.3084 518.263 81.055C519.795 79.8016 520.565 78.1305 520.565 76.0415C520.565 73.9525 519.795 72.1978 518.263 70.9778C516.732 69.7579 514.706 69.1479 512.196 69.1479C509.685 69.1479 507.659 69.7579 506.128 70.9778C504.596 72.1978 503.826 73.8857 503.826 76.0415C503.826 78.1973 504.596 79.8016 506.128 81.055C507.659 82.3084 509.685 82.9351 512.196 82.9351Z" fill="#0D0D0D"/>
<path d="M560.394 87.2133L539.99 40.8381H554.009L572.94 83.9712L560.386 87.2133H560.394ZM548.677 111.763L579.962 40.8381H593.98L562.696 111.763H548.677Z" fill="#0D0D0D"/>
<path d="M599.696 91.9176V40.8464H609.949L612.777 50.6645L608.384 50.4556C610.2 48.3667 612.183 46.52 614.342 44.924C616.502 43.3197 618.853 42.0496 621.406 41.1138C623.95 40.1779 626.62 39.7016 629.407 39.7016C632.897 39.7016 635.684 40.2949 637.776 41.4731C639.869 42.6596 641.417 44.2556 642.43 46.2777C643.442 48.2998 644.137 50.581 644.522 53.1212C644.907 55.6614 645.1 58.2935 645.1 61.0091V91.9259H631.391V60.9089C631.391 57.7754 630.763 55.6864 629.508 54.642C628.252 53.5975 626.754 53.071 625.005 53.071C622.494 53.071 620.05 53.8231 617.682 55.3188C615.313 56.8145 613.321 58.7113 611.723 61.0091L609.949 53.9066H613.397V91.9259H599.688L599.696 91.9176ZM662.993 91.9176V60.9005C662.993 57.7671 662.382 55.6781 661.16 54.6336C659.938 53.5891 658.457 53.0627 656.716 53.0627C654.205 53.0627 651.761 53.8147 649.393 55.3104C647.024 56.8061 645.033 58.7029 643.434 61.0008L639.986 50.4556C641.802 48.3667 643.802 46.52 646.003 44.924C648.196 43.3197 650.573 42.0496 653.117 41.1138C655.662 40.1779 658.331 39.7016 661.118 39.7016C664.533 39.7016 667.295 40.2949 669.387 41.4731C671.48 42.6596 673.053 44.2556 674.091 46.2777C675.137 48.2998 675.848 50.581 676.233 53.1212C676.618 55.6614 676.811 58.2935 676.811 61.0091V91.9259H663.001L662.993 91.9176Z" fill="#0D0D0D"/>
<path d="M707.944 92.962C702.856 92.962 698.387 91.8674 694.554 89.6698C690.72 87.4805 687.758 84.3972 685.665 80.4281C683.573 76.4591 682.527 71.7965 682.527 66.432C682.527 61.0675 683.573 56.4969 685.665 52.486C687.758 48.4836 690.72 45.3501 694.554 43.0857C698.387 40.8212 702.856 39.6932 707.944 39.6932C713.033 39.6932 717.586 40.8463 721.385 43.1358C725.185 45.4337 728.131 48.5838 730.223 52.5863C732.316 56.5888 733.362 61.1678 733.362 66.3234C733.362 67.0921 733.345 67.8358 733.312 68.5711C733.278 69.3065 733.186 69.9164 733.052 70.4011H693.717V60.1651H722.691L720.599 65.0784C720.599 60.7584 719.569 57.2405 717.51 54.5332C715.452 51.8176 712.263 50.4556 707.936 50.4556C704.17 50.4556 701.14 51.6254 698.83 53.9567C696.529 56.288 695.382 59.4047 695.382 63.3069V68.8385C695.382 72.9496 696.545 76.1666 698.889 78.4979C701.224 80.8292 704.413 81.999 708.463 81.999C712.02 81.999 714.807 81.2637 716.833 79.8098C718.858 78.3475 720.599 76.5343 722.063 74.3785L731.588 79.8098C729.286 84.0546 726.164 87.3134 722.222 89.5778C718.28 91.8423 713.518 92.9703 707.944 92.9703V92.962Z" fill="#0D0D0D"/>
<path d="M769.844 39.6932C773.334 39.6932 776.137 40.2864 778.263 41.4646C780.389 42.6512 781.996 44.2471 783.076 46.2693C784.155 48.2914 784.867 50.5725 785.218 53.1127C785.57 55.6529 785.737 58.285 785.737 61.0007V91.9175H772.028V60.9004C772.028 57.767 771.417 55.678 770.195 54.6335C768.973 53.589 767.425 53.0626 765.542 53.0626C763.801 53.0626 762.018 53.3968 760.202 54.0569C758.386 54.7171 756.696 55.6613 755.131 56.8812C753.557 58.1012 752.218 59.4799 751.105 61.0091L749.331 53.9065H752.779V91.9258H739.07V40.8546H749.322L752.151 50.6728L747.757 50.4639C749.573 48.3749 751.641 46.5283 753.984 44.9323C756.319 43.328 758.813 42.0579 761.466 41.122C764.119 40.1862 766.906 39.7099 769.835 39.7099L769.844 39.6932Z" fill="#0D0D0D"/>
<path d="M791.47 53.4806V40.8465H824.32V53.4806H791.47ZM816.369 92.8536C811.138 92.8536 807.004 91.4832 803.974 88.7258C800.944 85.9767 799.421 81.5731 799.421 75.5151V41.4649L799.212 40.8382L802.041 28.8224H813.13V73.3175C813.13 75.5485 813.665 77.1696 814.753 78.1723C815.833 79.1834 817.214 79.6847 818.888 79.6847C820.001 79.6847 821.014 79.6012 821.918 79.4257C822.821 79.2502 823.625 79.058 824.328 78.8491V91.5919C823.215 92.0097 822.026 92.3272 820.771 92.5277C819.516 92.7283 818.051 92.8452 816.377 92.8452L816.369 92.8536Z" fill="#0D0D0D"/>
<path d="M850.473 93.2712C846.565 93.2712 842.849 92.469 839.334 90.8647C835.81 89.2603 832.689 86.4778 829.969 82.5088L838.338 75.1974C840.573 77.7041 842.715 79.5006 844.774 80.5786C846.833 81.6565 849.151 82.1996 851.729 82.1996C853.47 82.1996 854.867 81.7818 855.914 80.9462C856.96 80.1106 857.487 79.0661 857.487 77.8128C857.487 76.9772 857.211 76.2335 856.65 75.565C856.089 74.9049 855.06 74.2615 853.562 73.6348C852.064 73.0081 849.879 72.348 847.025 71.6461C841.728 70.2507 837.752 68.3539 835.099 65.9557C832.446 63.5493 831.124 60.1568 831.124 55.7699C831.124 52.7785 831.894 50.0461 833.425 47.5728C834.957 45.0994 837.175 43.1358 840.07 41.6735C842.966 40.2112 846.398 39.4843 850.373 39.4843C855.043 39.4843 859.035 40.3867 862.349 42.1999C865.664 44.0132 868.325 46.2024 870.351 48.7844L861.462 56.2044C860.14 54.809 858.433 53.5974 856.34 52.5445C854.248 51.4917 851.804 50.9736 849.017 50.9736C847.486 50.9736 846.121 51.3246 844.933 52.0181C843.745 52.7117 843.159 53.7227 843.159 55.0429C843.159 56.2963 843.803 57.3408 845.092 58.1764C846.381 59.012 848.875 59.881 852.574 60.7834C858.851 62.2457 863.354 64.2261 866.065 66.7328C868.777 69.2396 870.15 72.582 870.15 76.7599C870.15 80.1023 869.279 83.0101 867.538 85.4835C865.798 87.9568 863.437 89.8703 860.475 91.2323C857.512 92.586 854.181 93.2712 850.482 93.2712H850.473Z" fill="#0D0D0D"/>
</svg>
